<svg width="100" height="100" fill="none" xmlns="http://www.w3.org/2000/svg"><path d="M28.22 46.735a10.916 10.916 0 003.31 6.497c-3.7.614-6.53 3.834-6.53 7.706v9.374c0 .864.7 1.563 1.563 1.563h46.874c.864 0 1.563-.7 1.563-1.563v-9.374c0-3.87-2.828-7.089-6.525-7.705.066-.062.132-.122.196-.186a10.843 10.843 0 003.11-6.312c3.608-.69 6.344-3.867 6.344-7.672V17.186c0-4.307-3.505-7.812-7.813-7.812H65.47a7.755 7.755 0 00-2.133-3.962 7.761 7.761 0 00-5.525-2.288H42.188c-11.2 0-20.313 9.112-20.313 20.313v15.625c0 3.806 2.737 6.983 6.346 7.672zM25 39.063V37.5h3.125v5.981A4.695 4.695 0 0125 39.062zM67.188 56.25a4.693 4.693 0 014.687 4.688v7.812h-6.25V62.5a1.562 1.562 0 10-3.125 0v6.25h-25V62.5a1.562 1.562 0 10-3.125 0v6.25h-6.25v-7.813a4.693 4.693 0 014.688-4.687h7.97c.725 3.562 3.882 6.25 7.654 6.25h3.126c3.772 0 6.929-2.688 7.655-6.25h7.97zm-23.17 0h11.964a4.696 4.696 0 01-4.42 3.125h-3.124a4.696 4.696 0 01-4.42-3.125zm22.443-5.413a7.754 7.754 0 01-5.523 2.288H39.061c-4.307 0-7.812-3.505-7.812-7.813v-1.075a9.373 9.373 0 007.813 4.2 9.373 9.373 0 007.782-4.153A4.669 4.669 0 0050 45.508a4.669 4.669 0 003.155-1.224 9.373 9.373 0 007.782 4.154 9.373 9.373 0 007.813-4.201v1.075c0 2.089-.813 4.05-2.29 5.525zm-5.897-18.014a6.183 6.183 0 013.272.701 6.25 6.25 0 013.352 5.538 6.257 6.257 0 01-6.25 6.25 6.257 6.257 0 01-6.25-6.25c0-1.04.26-2.068.753-2.976l.01-.02.003-.005.01-.017a6.216 6.216 0 015.1-3.22zm-8.916 7.49c-.054.16-.086.33-.086.507a1.564 1.564 0 01-3.125 0c0-.178-.03-.348-.085-.507a9.4 9.4 0 00.086-1.25c0-.533-.047-1.055-.133-1.563H50c.57 0 1.143-.035 1.712-.097a9.375 9.375 0 00-.15 1.66c0 .424.032.84.086 1.25zm-6.336-1.25a6.257 6.257 0 01-6.25 6.25 6.257 6.257 0 01-6.25-6.25 6.257 6.257 0 016.25-6.25 6.257 6.257 0 016.25 6.25zm26.563 4.418V37.5H75v1.563a4.695 4.695 0 01-3.125 4.418zM25 23.437C25 13.96 32.71 6.25 42.188 6.25h15.624a4.66 4.66 0 013.316 1.372 4.658 4.658 0 011.372 3.316c0 .862.7 1.562 1.563 1.562h6.25A4.693 4.693 0 0175 17.188v17.187h-4.688c-.472 0-.933-.069-1.376-.205a9.345 9.345 0 00-3.106-3.106 4.676 4.676 0 01-.205-1.377v-7.812a1.562 1.562 0 10-3.125 0c0 2.89-.995 5.67-2.813 7.897a9.302 9.302 0 00-6.636 4.224c-.297.074-.593.142-.888.193-.713.123-1.44.186-2.163.186h-2.824a9.376 9.376 0 00-8.114-4.688c-3.462 0-6.49 1.889-8.113 4.688H25V23.437z" fill="#fff"/><path d="M95.988 87.458L87.5 83.391v-.579c0-.862-.7-1.562-1.563-1.562H51.563v-4.688c0-.862-.7-1.562-1.563-1.562H17.187c-.863 0-1.562.7-1.562 1.563v4.687h-4.688c-.862 0-1.562.7-1.562 1.563H4.687c-.862 0-1.562.699-1.562 1.562v9.375c0 .863.7 1.563 1.563 1.563h4.687c0 .862.7 1.562 1.563 1.562h75c.862 0 1.562-.7 1.562-1.563v-.614l8.534-4.445a1.563 1.563 0 00-.046-2.795zM18.75 78.125h29.688v3.125H18.75v-3.125zM6.25 92.188v-6.25h3.125v6.25H6.25zm6.25-7.813h18.75v9.375H12.5v-9.375zm21.875 0h31.25v9.375h-31.25v-9.375zM68.75 93.75v-9.375h15.625v9.375H68.75zm18.75-2.576v-4.318l4.318 2.07-4.318 2.248z" fill="#FFB500"/><path d="M53.125 45.313c-.863 0-1.563.699-1.563 1.562 0 .861-.7 1.563-1.562 1.563a1.564 1.564 0 01-1.563-1.563 1.562 1.562 0 10-3.124 0A4.693 4.693 0 0050 51.563a4.693 4.693 0 004.688-4.688c0-.863-.7-1.563-1.563-1.563zM39.063 37.5c-.864 0-1.563.7-1.563 1.563v1.562a1.562 1.562 0 103.125 0v-1.563c0-.862-.7-1.562-1.563-1.562zm21.875 4.688c.862 0 1.562-.7 1.562-1.563v-1.563a1.562 1.562 0 10-3.125 0v1.563c0 .863.7 1.563 1.563 1.563z" fill="#fff"/></svg>