<svg width="100" height="100" fill="none" xmlns="http://www.w3.org/2000/svg"><path d="M45.313 21.51V6.615l12.412 7.449-12.413 7.448zm25 22.24h12.5v12.5h-12.5v-12.5zM81.25 80.155l-2.064-.749.93-1.989-5.97-5.969-1.988.932-.75-2.067h-8.44l-.75 2.064-1.988-.932-5.97 5.97.93 1.988-2.065.752v8.44l2.064.749-.93 1.989 5.97 5.969 1.988-.932.75 2.067h8.44l.75-2.064 1.988.932 5.97-5.97-.93-1.988 2.065-.752v-8.44zm-14.063 10.47a6.25 6.25 0 11.001-12.5 6.25 6.25 0 010 12.5z" fill="#FFB500"/><path d="M25 49.998a1.562 1.562 0 100-3.124 1.562 1.562 0 000 3.124zm45.313-7.81h12.5v3.124h-12.5v-3.124zm0 6.25h12.5v3.124h-12.5v-3.124zm0 6.25h12.5v3.124h-12.5v-3.124zm-3.125 21.875c-4.308 0-7.813 3.504-7.813 7.812s3.505 7.813 7.813 7.813c4.307 0 7.812-3.505 7.812-7.813s-3.505-7.813-7.813-7.813zm0 12.5a4.693 4.693 0 01-4.688-4.688 4.693 4.693 0 014.688-4.688 4.693 4.693 0 014.687 4.688 4.693 4.693 0 01-4.688 4.688z" fill="#fff"/><path d="M79.247 26.563a37.288 37.288 0 00-16.778-11.91c.01-.197.031-.39.031-.59 0-6.893-5.608-12.5-12.5-12.5s-12.5 5.607-12.5 12.5c0 .201.02.398.03.598a37.516 37.516 0 00-19.024 15.027h-.94c-8.824 0-16.003 7.18-16.003 16.004a16.03 16.03 0 006.703 13.022L12.5 61.74v1.144l-3.005.86c-4.672 1.33-7.932 5.656-7.932 10.513v24.18h28.125v-11.92c.245-.207.485-.42.715-.65l2.505-2.504A37.534 37.534 0 0050 87.5c1.04 0 2.084-.06 3.125-.145V84.21c-6.11.542-12.355-.56-17.884-3.181l7.593-7.593H50a4.693 4.693 0 004.688-4.687v-3.125A4.693 4.693 0 0050 60.937h-.605a6.066 6.066 0 00-5.328-3.124c-1.63 0-3.162.634-4.315 1.789l-3.815 3.814-7.25 7.25A7.784 7.784 0 0027.4 68.94L25 66.539v-2.478h.647l4.04-4.04v-2.646l4.688-1.563v-1.126c0-5.528-2.156-10.258-3.64-12.861.346-.088.703-.19 1.063-.325 2.67-.998 4.14-2.975 4.14-5.563a6.256 6.256 0 00-6.25-6.25h-7.411A34.36 34.36 0 0138.069 17.79c1.589 5.078 6.336 8.773 11.931 8.773 5.6 0 10.352-3.701 11.936-8.785a34.103 34.103 0 0113.187 8.785h-4.81v9.375h-6.25v28.126H81.33a34.3 34.3 0 01-5.736 8.83l2.208 2.209c2.956-3.27 5.309-6.96 6.957-11.04h4.303v-6.25h9.376v-31.25H79.246zm-52.684 68.75H4.688v-14.58c.082.05.159.11.243.155l12.542 6.842a10.861 10.861 0 009.09.616v6.965zm15.4-33.502a3 3 0 012.106-.873 2.96 2.96 0 012.664 1.646l.739 1.478H50c.86 0 1.563.7 1.563 1.563v3.125c0 .862-.702 1.563-1.563 1.563h-7.166l-4.687-4.688 3.816-3.814zm-6.026 6.023l4.041 4.041-11.784 11.784a7.728 7.728 0 01-5.5 2.278 7.809 7.809 0 01-3.724-.948L6.428 78.147a3.34 3.34 0 01-1.74-2.931c0-1.843 1.498-3.341 3.417-3.341a3.35 3.35 0 011.622.42l11.803 6.557a7.825 7.825 0 011.732 1.306l2.196 2.197 2.21-2.21-2.02-2.022 10.29-10.289zM25.19 71.148c.445.446.802.986 1.036 1.57l.034.374-3.093 3.094-.118-.066-11.803-6.556a6.555 6.555 0 00-3.217-.814c-.392 0-.772.048-1.144.116a7.754 7.754 0 013.47-2.118l3.254-.93 6.704 6.704 3.125-3.125 1.752 1.751zm6.027-17.578l-4.654 1.552v3.605l-2.209 2.209H18.75v3.125h3.125v2.478l-1.563 1.564-4.687-4.689V54.04l-2.667-2.667a1.577 1.577 0 01-.458-1.105v-.269c0-.862.702-1.562 1.563-1.562h1.562v-4.688c0-.862.702-1.562 1.563-1.562h10.114c1.03 1.589 3.59 6.03 3.914 11.384zm-1.529-20.758a3.128 3.128 0 013.125 3.126c0 3.059-4.5 3.121-4.692 3.123H17.187a4.693 4.693 0 00-4.687 4.687v1.83a4.696 4.696 0 00-3.125 4.42v.27c0 1.25.488 2.429 1.373 3.313l1.752 1.752V57.9l-2.419-1.728a12.906 12.906 0 01-5.393-10.48c0-7.101 5.778-12.88 12.88-12.88h12.12zM50 23.438c-5.17 0-9.375-4.205-9.375-9.375S44.83 4.687 50 4.687s9.375 4.205 9.375 9.375S55.17 23.438 50 23.438zm35.938 37.5h-18.75V39.061h18.75v21.876zm9.374-6.25h-6.25v-18.75H73.439v-6.25h21.874v25z" fill="#fff"/></svg>