<svg width="100" height="100" fill="none" xmlns="http://www.w3.org/2000/svg"><path d="M60.938 48.438h23.437a37.213 37.213 0 006.25-20.643v-4.358H54.687v4.358c0 7.347 2.175 14.53 6.25 20.642z" fill="#FFB500"/><path d="M94.5 59.031a7.807 7.807 0 00-7-4.343h-7.813a1.563 1.563 0 01-1.562-1.563V42.187h-12.5v10.938a1.563 1.563 0 01-1.563 1.563h-9.244a7.81 7.81 0 00-7.654 6.252l-8.102 35.935h10.883l4.963-16.686a11.811 11.811 0 002.77 7.311l.113 9.375h31.272a6.25 6.25 0 006.25-6.25V62.5a7.745 7.745 0 00-.813-3.469z" fill="#1DA8F4"/><path d="M95.313 62.5v28.125a6.25 6.25 0 01-6.25 6.25h-24.61C74.465 90.637 87.748 79.027 94.5 59.031a7.744 7.744 0 01.813 3.469z" fill="#1DA8F4"/><path d="M85.938 87.5v9.375H57.811l-.134-9.375c-3.865-4.602-3.606-11.188.135-15.625V54.687H62.5l1.408 4.928a8.285 8.285 0 0015.934 0l1.408-4.928h4.688v17.188a12.124 12.124 0 010 15.625zm-7.813-38.966v-6.346h-12.5v6.3c1.65.857 3.46 1.361 5.314 1.482 2.48.166 4.96-.33 7.186-1.436z" fill="#1DA8F4"/><path d="M85.938 87.5v9.375H62.022c7.99-5.018 17.334-12.84 24.289-24.533a12.123 12.123 0 01-.374 15.158z" fill="#1DA8F4"/><path d="M78.16 74.345a3.324 3.324 0 00-4.476.996L62.5 92.57l1.035 4.306 4.476-.996 11.184-17.23a3.056 3.056 0 00-1.036-4.305z" fill="#3D4D63"/><path d="M81.25 87.5L75 84.375l-7.813 1.563v10.937h21.876a6.25 6.25 0 006.25-6.25v-4.688L81.25 87.5zm4.688-67.187v12.5a14.062 14.062 0 01-14.999 14.03c-7.474-.482-13.126-7.023-13.126-14.513V20.313a14.063 14.063 0 0128.124 0z" fill="#1DA8F4"/><path d="M85.938 20.313v12.5a14.062 14.062 0 01-13.233 14.039 14.061 14.061 0 007.568-12.477V17.187a14.019 14.019 0 00-4.626-10.425 14.069 14.069 0 0110.29 13.55z" fill="#1DA8F4"/><path d="M90.625 23.438v6.25h-4.688v-6.25a16.855 16.855 0 01-8.459-9.754l-.915-2.746-3.13 10.011A23.752 23.752 0 0153.126 37.5V23.437a18.75 18.75 0 0137.5 0z" fill="#FFB500"/><path d="M90.625 23.438v6.25h-4.688v-6.25a16.853 16.853 0 01-6.25-5.381v-3.994a13.997 13.997 0 00-3.07-8.77 18.764 18.764 0 0114.008 18.145z" fill="#FFB500"/><path d="M85.938 23.438H87.5a4.688 4.688 0 010 9.375h-1.563v-9.376z" fill="#1DA8F4"/><path d="M57.813 50v28.125a4.689 4.689 0 01-4.688 4.688H9.375c-.031 0-.063 0-.092-.002a4.688 4.688 0 01-4.595-4.686V50a4.689 4.689 0 014.687-4.688h43.75A4.689 4.689 0 0157.813 50z" fill="#E0E0DE"/><path d="M57.813 50v28.125a4.689 4.689 0 01-4.688 4.688H9.375c-.031 0-.063 0-.092-.002 13.455-5.6 33.242-16.909 43.559-37.499h.283A4.689 4.689 0 0157.813 50z" fill="#D6D6D4"/><path d="M25 89.063h18.75v6.25H25v-6.25z" fill="#B0B0AE"/><path d="M34.375 95.313H18.75l6.25-25h12.5l-3.125 25z" fill="#BFBFBD"/><path d="M87.5 53.125h-7.813V50h4.688a1.563 1.563 0 001.302-.699 39.32 39.32 0 004.85-10.27 38.912 38.912 0 001.36-6.46 6.235 6.235 0 00.3-8.573v-.56a20.313 20.313 0 00-40.624 0V37.5a1.563 1.563 0 001.71 1.556 23.52 23.52 0 001.466-.187 38.435 38.435 0 002.618 6.536 6.225 6.225 0 00-4.232-1.655H9.375A6.257 6.257 0 003.125 50v28.125a6.257 6.257 0 006.25 6.25h10.499l-2.64 10.559a1.563 1.563 0 001.516 1.941h25a1.563 1.563 0 001.563-1.563v-6.25A1.563 1.563 0 0043.75 87.5h-.413l.64-3.125h8.07l-3.546 12.06 2.998.88 3.322-11.298c.37.719.803 1.403 1.297 2.043l.132 8.838 3.125-.046-.14-9.375a1.565 1.565 0 00-.365-.98 10.028 10.028 0 01-1.899-3.445 6.208 6.208 0 002.404-4.927V56.25h1.947l1.082 3.788a9.846 9.846 0 0018.942 0l1.082-3.79h1.947v15.626c0 .368.13.724.367 1.006a10.505 10.505 0 011.64 10.914l-4.846.538-3.911-1.955 2.874-4.434a4.57 4.57 0 00.632-3.542 4.663 4.663 0 00-2.173-2.962 4.904 4.904 0 00-6.58 1.49L61.19 90.148a1.56 1.56 0 00-.21 1.214l1.032 4.313a1.561 1.561 0 001.858 1.162l2.16-.48a1.558 1.558 0 001.157.518h21.876a7.821 7.821 0 007.812-7.813V62.5a9.386 9.386 0 00-9.375-9.375zm-23.438-6.25h-2.276a35.799 35.799 0 01-2.883-5.577 15.846 15.846 0 005.16 4.979v.598zm2.274-2.907a12.863 12.863 0 01-6.006-6.663 25.43 25.43 0 0014.6-15.887l1.728-5.54a18.338 18.338 0 007.717 8.497v8.438A12.506 12.506 0 0171.04 45.285a11.93 11.93 0 01-4.704-1.317zm24.289-15.843A3.128 3.128 0 0187.5 31.25V25a3.128 3.128 0 013.125 3.125zm-3.088 9.998a36.155 36.155 0 01-4.012 8.752h-3.838v-.536a15.51 15.51 0 007.735-11.964h.078c.322 0 .642-.025.96-.074a35.224 35.224 0 01-.923 3.822zm-32.85-14.685a17.185 17.185 0 0134.317-1.379 6.249 6.249 0 00-1.504-.184h-1.175a15.174 15.174 0 01-7.36-8.684l-.921-2.75a1.562 1.562 0 00-2.973.031l-3.125 10.015A22.196 22.196 0 0154.688 35.71V23.437zM20.752 93.75l5.469-21.875h9.51L32.996 93.75H20.75zm21.436 0h-6.042l.39-3.125h5.653v3.125zm-2.04-6.25h-3.22l.39-3.125h3.47l-.64 3.125zm16.103-9.375a3.126 3.126 0 01-1.777 2.821 2.883 2.883 0 01-.647.218c-.23.055-.465.084-.701.086H37.707l1.343-10.744a1.561 1.561 0 00-1.55-1.756H25a1.562 1.562 0 00-1.516 1.184L20.655 81.25H9.375a3.129 3.129 0 01-3.125-3.125V50a3.129 3.129 0 013.125-3.125h43.75A3.128 3.128 0 0156.25 50v28.125zm3.125-25V50a6.25 6.25 0 00-.14-1.315c.132.207.265.413.401.618a1.563 1.563 0 001.301.697h3.126v3.125h-4.688zm18.965 6.062a6.685 6.685 0 01-2.406 3.52A6.731 6.731 0 0165.41 59.18l-.85-2.974a3.127 3.127 0 002.629-3.081v-5.427c1.18.386 2.406.623 3.646.705a15.583 15.583 0 005.728-.683v5.405a3.127 3.127 0 002.629 3.082l-.851 2.98zm9.16 12.137V56.25a6.257 6.257 0 016.25 6.25v20.477l-3.924.435A13.614 13.614 0 0087.5 71.325zm-12.502 3.308a1.753 1.753 0 012.352-.512 1.565 1.565 0 01.736.984 1.471 1.471 0 01-.21 1.14L74.6 81.299l-4.521.904 4.919-7.571zM64.176 91.289l1.449-2.23v4.188l-.932.207-.517-2.165zm24.886 2.461H68.75v-8.094l6.03-1.206 5.771 2.885c.27.135.572.19.871.156l12.328-1.37v2.942a4.693 4.693 0 01-4.688 4.687z" fill="#FFFCFC"/><path d="M76.563 34.375h-3.126a1.563 1.563 0 01-3.124 0h-3.126a4.688 4.688 0 009.376 0zm2.343-4.687a2.344 2.344 0 100-4.69 2.344 2.344 0 000 4.69zM9.375 50h6.25v3.125h-6.25V50zm9.375 0H25v3.125h-6.25V50zm9.375 0h6.25v3.125h-6.25V50zm9.375 0h6.25v3.125H37.5V50zm9.375 0h6.25v3.125h-6.25V50z" fill="#FFFCFC"/></svg>