<svg width="100" height="100" fill="none" xmlns="http://www.w3.org/2000/svg"><path d="M95.313 35.938h-18.75c-.027 0-.047.014-.074.014a5.47 5.47 0 00-2.597-1.424 11.772 11.772 0 00-8.615-19.047 1.535 1.535 0 00-1.646 1.474 1.563 1.563 0 001.472 1.647 8.657 8.657 0 016.772 13.397v-2.311a1.563 1.563 0 00-3.125 0V43.75a12.5 12.5 0 01-25 0V31.156a12.78 12.78 0 007.544-3.678l.312-.312a17.424 17.424 0 0011.272 4.084h1.184a1.562 1.562 0 100-3.125h-1.184a14.344 14.344 0 01-10.21-4.23 1.563 1.563 0 00-2.21 0l-1.374 1.374a9.687 9.687 0 01-6.897 2.856 1.562 1.562 0 00-1.548 1.492 11.233 11.233 0 013.572-14.375l3.008-2.136a13.847 13.847 0 009.931 5.054l1.855.103a1.565 1.565 0 10.173-3.125l-1.855-.103a10.713 10.713 0 01-8.43-4.941 1.552 1.552 0 00-1.016-.694 1.562 1.562 0 00-1.205.26l-4.269 3.032a14.507 14.507 0 00-5.798 14.89 14.361 14.361 0 003.586 6.793h-.347a5.469 5.469 0 000 10.938h.86a15.635 15.635 0 007.733 11.948v3.677c0 .414.165.811.458 1.104l5.792 5.793v8.728a1.562 1.562 0 103.126 0v-8.728l5.792-5.793c.293-.293.457-.69.458-1.104v-1.563h3.124a10.95 10.95 0 0110.938 10.938V75h-7.813a1.563 1.563 0 00-1.562 1.563V87.5h-4.688a1.563 1.563 0 000 3.125h31.25a1.562 1.562 0 100-3.125H71.876v-9.375h6.25v4.688a1.562 1.562 0 103.125 0v-12.5a13.99 13.99 0 00-3.125-8.82v-22.43H93.75v4.687a1.562 1.562 0 103.125 0V37.5a1.563 1.563 0 00-1.563-1.562zM37.5 39.844a2.343 2.343 0 012.344-2.344h.781v4.688h-.781a2.343 2.343 0 01-2.344-2.344zm37.5 0a2.343 2.343 0 01-2.344 2.344h-.781V37.5h.781A2.343 2.343 0 0175 39.844zM56.25 64.978l-4.688-4.687v-1.636c3.052.96 6.324.96 9.376 0v1.636l-4.688 4.687zm10.938-8.728h-1.604a15.603 15.603 0 006.211-10.937h.861A5.412 5.412 0 0075 44.764v13.864a13.98 13.98 0 00-7.813-2.378z" fill="#fff"/><path d="M95.313 48.438A1.563 1.563 0 0093.75 50v10.938h-9.002a1.562 1.562 0 100 3.124h10.564a1.562 1.562 0 001.563-1.562V50a1.562 1.562 0 00-1.563-1.563zM54.425 39.93a1.563 1.563 0 00-.433-2.167 5.772 5.772 0 00-6.422 0 1.562 1.562 0 101.735 2.6 2.657 2.657 0 012.953 0 1.562 1.562 0 002.167-.433zm8.77.432a1.563 1.563 0 101.735-2.6 5.78 5.78 0 00-6.422 0 1.563 1.563 0 101.734 2.6 2.657 2.657 0 012.953 0zM56.25 53.125a5.13 5.13 0 004.688-5.469c0-3.906-3.407-3.906-4.688-3.906-1.281 0-4.688 0-4.688 3.906a5.13 5.13 0 004.688 5.469zm-1.467-6.072c.058-.053.312-.178 1.467-.178s1.406.125 1.466.177c.085.189.118.398.096.604 0 1.25-.73 2.344-1.562 2.344-.831 0-1.563-1.094-1.563-2.344a1.191 1.191 0 01.096-.603zm40.53 46.697H4.686a1.563 1.563 0 100 3.125h90.626a1.563 1.563 0 000-3.125zM4.688 87.5a1.563 1.563 0 100 3.125h53.124a1.563 1.563 0 000-3.125H37.255l-2.88-4.319v-5.056h6.25v4.688a1.563 1.563 0 003.125 0v-6.25A1.563 1.563 0 0042.187 75h-7.812v-4.688a10.95 10.95 0 018.08-10.546 1.562 1.562 0 10-.816-3.016A14.078 14.078 0 0031.25 70.313v8.18l-2.67-4.005a9.322 9.322 0 00-2.382-5.738h.364a4.688 4.688 0 004.688-4.688v-9.374A4.688 4.688 0 0026.562 50 1.563 1.563 0 0125 48.437a4.688 4.688 0 00-4.688-4.687h-6.25a4.688 4.688 0 00-4.687 4.688A1.563 1.563 0 017.812 50a4.688 4.688 0 00-4.687 4.688v3.124a1.563 1.563 0 003.125 0v-3.124a1.563 1.563 0 011.563-1.563 4.688 4.688 0 004.687-4.688 1.563 1.563 0 011.563-1.562h6.25a1.563 1.563 0 011.562 1.563 4.688 4.688 0 004.688 4.687 1.563 1.563 0 011.562 1.563v9.374a1.563 1.563 0 01-1.563 1.563H7.813a1.563 1.563 0 01-1.562-1.563 1.563 1.563 0 00-3.125 0A4.662 4.662 0 004.892 67.7c.272.97.864 1.818 1.678 2.41l6.999 5a7.74 7.74 0 003.098 1.306L22.825 87.5H4.688zm5.356-18.75h9.187a6.261 6.261 0 016.052 4.688h-7.175a4.655 4.655 0 01-2.724-.874l-5.34-3.814zm10.28 7.813h5.882L33.498 87.5h-7.092l-6.083-10.938z" fill="#fff"/><path d="M23.438 57.813a6.25 6.25 0 10-12.501 0 6.25 6.25 0 0012.5 0zm-9.375 0a3.125 3.125 0 116.25 0 3.125 3.125 0 01-6.25 0zm75-12.5a1.563 1.563 0 000-3.126h-3.126a1.563 1.563 0 000 3.126h3.126zM81.25 50a1.563 1.563 0 001.563 1.563h6.25a1.563 1.563 0 000-3.126h-6.25A1.563 1.563 0 0081.25 50zm1.563 7.813h6.25a1.563 1.563 0 000-3.126h-6.25a1.563 1.563 0 000 3.126z" fill="#fff"/><path d="M6.133 33.133l-.599 3.49a1.563 1.563 0 002.268 1.649l3.136-1.65 3.135 1.65a1.575 1.575 0 001.386.033 1.563 1.563 0 00.882-1.681l-.599-3.491 2.54-2.472a1.563 1.563 0 00-.866-2.666l-3.51-.51-1.562-3.176a1.627 1.627 0 00-2.803 0l-1.563 3.175-3.506.511a1.562 1.562 0 00-.878 2.666l2.539 2.472zm3.098-2.674a1.562 1.562 0 001.177-.854l.53-1.074.53 1.074a1.562 1.562 0 001.176.854l1.186.172-.858.836a1.563 1.563 0 00-.45 1.383l.203 1.181-1.061-.557a1.57 1.57 0 00-1.453 0l-1.061.557.203-1.18a1.563 1.563 0 00-.45-1.384l-.858-.842 1.186-.166zm12.419-2.464a1.563 1.563 0 00-.866 2.666l2.536 2.472-.598 3.49a1.563 1.563 0 002.267 1.649l3.136-1.65 3.136 1.65a1.575 1.575 0 001.385.033 1.563 1.563 0 00.882-1.681l-.598-3.491 2.539-2.472a1.563 1.563 0 00-.866-2.666l-3.51-.51-1.562-3.176a1.627 1.627 0 00-2.803 0l-1.562 3.175-3.516.511zm4.769 2.464a1.563 1.563 0 001.176-.854l.53-1.074.53 1.074a1.563 1.563 0 001.176.854l1.186.172-.858.836a1.564 1.564 0 00-.45 1.383l.204 1.181-1.061-.557a1.57 1.57 0 00-1.454 0l-1.06.557.203-1.18a1.563 1.563 0 00-.45-1.384l-.858-.836 1.186-.172zM13.945 15.945l-.598 3.491a1.562 1.562 0 002.267 1.648l3.136-1.65 3.136 1.65a1.575 1.575 0 001.385.033 1.563 1.563 0 00.882-1.681l-.598-3.49 2.539-2.473a1.563 1.563 0 00-.866-2.665l-3.51-.511-1.562-3.175a1.626 1.626 0 00-2.803 0l-1.562 3.175-3.507.51a1.561 1.561 0 00-.878 2.666l2.54 2.472zm3.099-2.673a1.563 1.563 0 001.176-.855l.53-1.073.53 1.073a1.562 1.562 0 001.176.855l1.186.172-.858.836a1.563 1.563 0 00-.45 1.383l.204 1.18-1.061-.557a1.57 1.57 0 00-1.454 0l-1.06.558.203-1.181a1.563 1.563 0 00-.45-1.383l-.858-.842 1.186-.166z" fill="#FFB500"/></svg>