<svg width="100" height="100" fill="none" xmlns="http://www.w3.org/2000/svg"><path d="M46.875 3.125h6.25v12.5h-6.25v-12.5zm0 81.25h6.25v12.5h-6.25v-12.5zm-43.75-37.5h12.5v6.25h-12.5v-6.25zm81.25 0h12.5v6.25h-12.5v-6.25zM32.813 77.344h34.374v-6.25a12.502 12.502 0 00-10.826-12.389l1.452 1.451-3.126 6.25L50 63.281l-4.688 3.125-3.124-6.25 1.45-1.45a12.502 12.502 0 00-10.825 12.388v6.25zm28.125-39.063v-4.687a10.937 10.937 0 10-21.876 0v4.687h1.563V36.72s9.375-1.563 12.5-4.688c0 0 3.125 4.688 6.25 4.688v1.562h1.563z" fill="#FFB500"/><path d="M45.313 43.75a1.563 1.563 0 100-3.125 1.563 1.563 0 000 3.125zm9.375 0a1.563 1.563 0 100-3.125 1.563 1.563 0 000 3.125z" fill="#fff"/><path d="M96.875 45.313h-4.95A42.19 42.19 0 0054.689 8.074V3.125a1.563 1.563 0 00-1.563-1.563h-6.25a1.563 1.563 0 00-1.563 1.563v4.95A42.19 42.19 0 008.075 45.312h-4.95a1.563 1.563 0 00-1.563 1.562v6.25a1.563 1.563 0 001.563 1.563h4.95a42.19 42.19 0 0037.238 37.238v4.949a1.563 1.563 0 001.562 1.563h6.25a1.563 1.563 0 001.563-1.563v-4.95a42.19 42.19 0 0037.238-37.237h4.949a1.563 1.563 0 001.563-1.563v-6.25a1.563 1.563 0 00-1.563-1.563zM48.437 4.687h3.126v9.375h-3.126V4.688zM4.688 51.563v-3.126h9.375v3.126H4.688zm46.876 43.75h-3.126v-9.376h3.126v9.376zM77.62 77.62a39.043 39.043 0 01-22.933 11.162v-4.408a1.563 1.563 0 00-1.563-1.563h-6.25a1.563 1.563 0 00-1.563 1.563v4.408a39.078 39.078 0 01-34.095-34.096h4.408a1.563 1.563 0 001.563-1.562v-6.25a1.563 1.563 0 00-1.563-1.563h-4.408a39.078 39.078 0 0134.096-34.095v4.408a1.563 1.563 0 001.562 1.563h6.25a1.563 1.563 0 001.563-1.563v-4.408a39.078 39.078 0 0134.095 34.096h-4.408a1.563 1.563 0 00-1.563 1.562v6.25a1.563 1.563 0 001.563 1.563h4.408A39.043 39.043 0 0177.621 77.62zm17.692-26.058h-9.376v-3.126h9.376v3.126z" fill="#fff"/><path d="M57.107 58.023l-.857-.857v-2.178A9.421 9.421 0 0060.4 50h1.319a3.91 3.91 0 003.906-3.906v-3.125A3.913 3.913 0 0062.5 39.14v-4.766a12.5 12.5 0 00-25 0v4.766a3.913 3.913 0 00-3.125 3.828v3.125A3.91 3.91 0 0038.281 50H39.6a9.421 9.421 0 004.15 4.988v2.178l-.857.857A14.1 14.1 0 0031.25 71.875v4.688a1.563 1.563 0 001.563 1.562h34.374a1.563 1.563 0 001.563-1.563v-4.687a14.1 14.1 0 00-11.643-13.852zm3.83-15.836h.782a.781.781 0 01.781.782v3.125a.781.781 0 01-.781.781h-.782v-4.688zm-21.874 4.688h-.782a.781.781 0 01-.781-.781v-3.125a.781.781 0 01.781-.782h.782v4.688zm1.562-10.96v-1.54a9.375 9.375 0 1118.75 0v1.563c-1.719 0-4.078-2.692-4.95-3.993a1.565 1.565 0 00-2.405-.238c-2.194 2.195-8.733 3.734-11.395 4.207zm1.563 10.96v-8.076c2.44-.494 7.519-1.705 10.654-3.772 1.076 1.295 2.885 3.12 4.97 3.782v8.066a6.258 6.258 0 01-6.25 6.25h-3.124a6.258 6.258 0 01-6.25-6.25zm4.687 10.416v-1.174a9.362 9.362 0 001.563.133h3.124a9.3 9.3 0 001.563-.133v1.174L50 61.459l-3.125-4.168zm.885 6.387l-1.842 1.228-1.83-3.66 1.055-1.055 2.617 3.487zm7.097-3.487l1.055 1.055-1.83 3.66-1.842-1.228 2.617-3.487zM65.625 75h-31.25v-3.125a10.98 10.98 0 016.53-10.01l3.01 6.022a1.566 1.566 0 002.265.601L50 65.94l3.82 2.55a1.574 1.574 0 001.268.208 1.569 1.569 0 00.998-.81l3.01-6.022a10.98 10.98 0 016.529 10.01V75z" fill="#fff"/></svg>